<svg width="60" height="14" viewBox="0 0 60 14" fill="none" xmlns="http://www.w3.org/2000/svg">
<g clip-path="url(#clip0_3214_9710)">
<path fill-rule="evenodd" clip-rule="evenodd" d="M20.5583 1.57233C20.4144 1.53938 20.2861 1.45836 20.1944 1.34266C20.1028 1.22696 20.0533 1.08348 20.0542 0.93588C20.051 0.848963 20.0658 0.762324 20.0977 0.681414C20.1296 0.600504 20.1779 0.527075 20.2396 0.465752C20.3013 0.404428 20.375 0.356537 20.4561 0.325093C20.5372 0.293648 20.6239 0.279333 20.7108 0.283045H24.43C24.7778 0.283045 25.0034 0.251537 25.1861 0.721629L29.6665 10.8986C29.735 11.0569 29.8402 11.1966 29.9735 11.3062C30.1067 11.4158 30.2642 11.4921 30.4328 11.5287C31.1549 11.7001 31.1738 12.0719 31.1738 12.2849C31.1777 12.3842 31.158 12.483 31.1164 12.5732C31.0748 12.6635 31.0124 12.7426 30.9344 12.8041C30.7667 12.9528 30.5285 12.9566 30.2677 12.9566H26.42C26.1288 12.9566 26.0784 12.7436 26.0192 12.6277C25.8062 12.179 25.3701 11.2552 25.1609 10.804C25.1408 10.764 25.1095 10.7308 25.0708 10.7084C25.032 10.686 24.9876 10.6755 24.9429 10.678H20.4184C20.2785 10.678 20.2268 10.6994 20.1664 10.8192L19.9143 11.3346C19.8588 11.4707 19.879 11.5287 19.9332 11.5741C20.0003 11.61 20.0733 11.6335 20.1487 11.6434C20.3072 11.6656 20.4523 11.7442 20.5574 11.8648C20.6626 11.9855 20.7206 12.14 20.7209 12.3C20.7217 12.3854 20.7056 12.4702 20.6735 12.5494C20.6414 12.6285 20.5939 12.7006 20.5338 12.7613C20.4736 12.822 20.4021 12.8702 20.3232 12.903C20.2444 12.9359 20.1598 12.9528 20.0744 12.9528H16.8934C16.8123 12.953 16.732 12.9365 16.6576 12.9044C16.5831 12.8723 16.5161 12.8253 16.4606 12.7662C16.405 12.7071 16.3622 12.6373 16.3348 12.561C16.3073 12.4847 16.2958 12.4036 16.301 12.3227C16.3028 12.1779 16.3537 12.038 16.4452 11.9259C16.5368 11.8137 16.6637 11.7359 16.8051 11.7051C17.0667 11.6528 17.3207 11.5681 17.5613 11.4531C17.7037 11.3724 17.9394 11.1846 18.2015 10.6969L21.6724 3.18804C21.7241 3.06201 21.7732 2.99017 21.719 2.83893L21.4468 2.1798C21.3321 1.92774 21.2263 1.79415 20.9843 1.6971C20.8255 1.64543 20.5583 1.57233 20.5583 1.57233ZM24.1766 8.52415C24.1886 8.54909 24.194 8.57671 24.1921 8.60433C24.1903 8.63195 24.1813 8.65862 24.1661 8.68173C24.1508 8.70483 24.1299 8.7236 24.1052 8.73618C24.0805 8.74877 24.053 8.75474 24.0254 8.75352H21.3271C21.2011 8.75352 21.167 8.67665 21.2074 8.58843L22.6101 5.5637C22.6193 5.5377 22.6364 5.51522 22.659 5.4994C22.6816 5.48358 22.7085 5.47522 22.7361 5.47548C22.7604 5.47509 22.7842 5.48298 22.8034 5.49787C22.8227 5.51276 22.8363 5.53375 22.842 5.5574L24.1829 8.52415" fill="#E5231B"/>
<path d="M41.0294 7.84728C40.96 7.58514 40.8264 7.56624 40.6513 7.56624H37.5988C37.5763 7.56299 37.5534 7.56507 37.5318 7.57232C37.5103 7.57957 37.4908 7.59179 37.4748 7.60798C37.4589 7.62417 37.447 7.64389 37.44 7.66554C37.4331 7.68718 37.4314 7.71016 37.435 7.7326V10.9123C37.4224 11.0384 37.5106 11.0863 37.6366 11.0863H40.989C41.3171 11.0786 41.6409 11.0107 41.9443 10.8859C42.4588 10.6636 42.946 10.3828 43.3962 10.049C43.8877 9.67094 44.0011 9.65834 44.2129 9.65834C44.3111 9.65583 44.4088 9.67354 44.4999 9.71038C44.5911 9.74721 44.6736 9.80239 44.7425 9.87247C44.8114 9.94255 44.8652 10.026 44.9005 10.1178C44.9358 10.2095 44.9518 10.3075 44.9476 10.4057C44.9476 10.7523 44.5305 11.2211 44.3389 11.4744C43.9797 11.9483 43.3181 12.7864 43.3181 12.7864C43.2736 12.8386 43.2184 12.8807 43.1562 12.9096C43.0939 12.9385 43.0262 12.9537 42.9576 12.954H33.1626C32.9815 12.9521 32.8084 12.8796 32.6799 12.7521C32.5514 12.6246 32.4777 12.452 32.4744 12.2709C32.4725 12.1227 32.5147 11.9773 32.5957 11.8531C32.6767 11.729 32.7929 11.6318 32.9294 11.574C32.9294 11.574 33.1437 11.4694 33.2104 11.4341C33.4008 11.332 33.3529 11.1997 33.3844 10.9829L33.4121 2.01461C33.4121 1.87094 33.3566 1.81044 33.2029 1.73609C33.1676 1.71844 32.942 1.62644 32.942 1.62644C32.6055 1.45378 32.516 1.24835 32.516 0.969824C32.5159 0.879577 32.5335 0.790184 32.568 0.706775C32.6024 0.623366 32.653 0.547581 32.7168 0.483767C32.7806 0.419952 32.8564 0.369365 32.9398 0.334906C33.0232 0.300447 33.1126 0.282794 33.2029 0.28296L42.8883 0.295562C43.0106 0.285488 43.1333 0.309905 43.2425 0.366042C43.3516 0.42218 43.4429 0.50779 43.5058 0.613158L44.6565 2.15325C44.7825 2.307 44.9514 2.62334 44.9514 2.80986C44.9523 2.90353 44.9343 2.99642 44.8986 3.08302C44.8629 3.16962 44.8101 3.24816 44.7435 3.31399C44.6768 3.37981 44.5976 3.43158 44.5106 3.46622C44.4236 3.50086 44.3305 3.51766 44.2368 3.51563C44.1348 3.50948 44.0341 3.49042 43.9369 3.45892C43.6735 3.35809 43.3193 3.09217 43.095 2.94219C42.4295 2.49353 41.8448 2.17341 41.1226 2.17341H37.6681C37.5421 2.17341 37.4375 2.19484 37.4375 2.42547V5.55354C37.4362 5.57042 37.4385 5.5874 37.4444 5.60329C37.4502 5.61919 37.4595 5.63362 37.4715 5.6456C37.4834 5.65758 37.4979 5.66682 37.5138 5.67268C37.5297 5.67854 37.5466 5.68089 37.5635 5.67957H41.3722C41.9002 5.67957 42.0023 5.50438 42.3539 5.19687C42.6375 4.95111 42.732 4.90322 42.9286 4.85281C43.0388 4.82577 43.1537 4.82491 43.2642 4.8503C43.3747 4.87569 43.4778 4.92662 43.5651 4.999C43.7617 5.18805 43.9596 5.49178 43.7012 5.99338C43.7012 5.99338 42.4648 7.99474 42.2783 8.17496C42.0918 8.35519 41.9267 8.45601 41.7087 8.45601C41.3306 8.45601 41.1125 8.15606 41.0306 7.8435" fill="#E5231B"/>
<path d="M57.9012 2.55019C57.9799 2.81646 58.0277 3.09091 58.0436 3.36812C58.041 3.46683 58.0187 3.56403 57.978 3.65398C57.9373 3.74394 57.879 3.82483 57.8065 3.8919C57.734 3.95897 57.6489 4.01085 57.556 4.04449C57.4632 4.07812 57.3646 4.09284 57.266 4.08776C57.0431 4.05572 56.8383 3.9475 56.6862 3.7815C56.4947 3.57607 56.1191 3.21815 56.1191 3.21815C55.7763 2.9245 54.9848 2.00574 53.4725 2.00574C51.3678 2.00574 50.5536 4.24151 50.5536 6.60206C50.5536 10.2418 52.3709 11.2652 53.6628 11.2652C54.0509 11.2652 54.4958 11.2034 54.7277 11.0131C54.7899 10.9591 54.8393 10.892 54.8725 10.8166C54.9056 10.7412 54.9216 10.6594 54.9193 10.577V7.90016C54.9193 7.58131 54.884 7.57123 54.6987 7.48931C54.4013 7.36328 54.1114 7.21204 54.1114 6.69028C54.1143 6.59344 54.1364 6.49815 54.1765 6.40992C54.2165 6.32169 54.2736 6.24228 54.3445 6.17628C54.4154 6.11029 54.4987 6.05902 54.5896 6.02545C54.6805 5.99188 54.7771 5.97668 54.8739 5.98073H58.8287C58.9203 5.97685 59.0117 5.99116 59.0977 6.02284C59.1837 6.05452 59.2625 6.10294 59.3297 6.16529C59.3969 6.22764 59.451 6.30269 59.489 6.3861C59.5269 6.46951 59.548 6.55961 59.5509 6.65121C59.5533 6.80344 59.5078 6.95257 59.4207 7.07745C59.3336 7.20233 59.2094 7.2966 59.0657 7.34689C58.8728 7.42125 58.835 7.51325 58.835 7.83337V9.76415C58.835 9.92169 58.8073 9.94185 58.9396 9.97966C59.1238 10.0355 59.2797 10.1594 59.3757 10.3262C59.423 10.4291 59.4392 10.5437 59.4222 10.6557C59.4052 10.7677 59.3557 10.8722 59.2799 10.9564C58.7871 11.4857 57.9478 11.8386 57.2357 12.1587C56.2199 12.6162 54.7151 13.0813 53.262 13.0813C50.0797 13.0813 46.4312 10.8127 46.4312 6.60206C46.4312 2.39139 49.9297 0.0825195 52.928 0.0825195C53.9766 0.0825195 54.7101 0.356005 55.097 0.46061C55.2154 0.505151 55.3391 0.534375 55.465 0.547571C55.7637 0.547571 55.8721 0.24384 56.2502 0.24384C56.6938 0.24384 56.9584 0.512283 57.1613 0.861386C57.4881 1.39054 57.738 1.96339 57.9037 2.56279" fill="#E5231B"/>
<path fill-rule="evenodd" clip-rule="evenodd" d="M0.485596 0.290527V12.8141H13.0105V0.290527H0.485596ZM8.39902 12.1046V0.997556C9.59372 1.35547 10.6411 2.08911 11.3858 3.08956C12.1305 4.09 12.5326 5.30391 12.5326 6.55107C12.5326 7.79823 12.1305 9.01214 11.3858 10.0126C10.6411 11.013 9.59372 11.7467 8.39902 12.1046ZM0.96325 6.28199C1.03261 4.79453 1.67241 3.39098 2.74971 2.36298C3.827 1.33497 5.25895 0.76156 6.74803 0.76188C7.11798 0.762954 7.48708 0.797543 7.85079 0.865224C7.8508 1.57913 7.70975 2.286 7.43576 2.94523C7.16176 3.60446 6.76021 4.20306 6.25417 4.70663C5.74814 5.21021 5.14759 5.60883 4.48704 5.87962C3.82648 6.1504 3.11893 6.288 2.40503 6.28452L0.96325 6.28199ZM2.40503 6.82266C3.11893 6.81918 3.82648 6.95678 4.48704 7.22756C5.14759 7.49835 5.74814 7.89698 6.25417 8.40055C6.76021 8.90413 7.16176 9.50272 7.43576 10.162C7.70975 10.8212 7.8508 11.5281 7.85079 12.242C7.48708 12.3096 7.11798 12.3442 6.74803 12.3453C5.25937 12.3457 3.82777 11.7726 2.75054 10.7451C1.67332 9.71764 1.03324 8.31472 0.96325 6.82771L2.40503 6.82266Z" fill="#E5231B"/>
</g>
<defs>
<clipPath id="clip0_3214_9710">
<rect width="59.0627" height="13" fill="white" transform="translate(0.485596 0.0761719)"/>
</clipPath>
</defs>
</svg>
