<svg width="57" height="13" viewBox="0 0 57 13" fill="none" xmlns="http://www.w3.org/2000/svg">
<path d="M24.5124 6.60423C24.8472 6.47467 25.1345 6.24597 25.3358 5.9487C25.5371 5.65143 25.6429 5.29978 25.6389 4.94078C25.6389 3.44347 24.5772 2.7019 23.1184 2.7019H19.291V10.849H23.4527C24.7332 10.849 25.9874 9.95343 25.9874 8.58376C25.9833 6.9507 24.5124 6.62044 24.5124 6.60423ZM21.2868 4.38967H22.7719C22.9637 4.37802 23.1523 4.44296 23.2963 4.57021C23.4402 4.69747 23.5278 4.87665 23.5398 5.06842C23.5398 5.09679 23.5398 5.12651 23.5398 5.15757C23.5356 5.35767 23.4525 5.54801 23.3087 5.68724C23.165 5.82647 22.972 5.90334 22.7719 5.90116H21.2746L21.2868 4.38967ZM22.7841 9.13689H21.2989V7.53626H22.7456C23.475 7.53626 23.8214 7.85638 23.8214 8.3305C23.8214 8.92415 23.3858 9.13892 22.7841 9.13892V9.13689Z" fill="#ED1C24"/>
<path d="M30.3861 2.49707C28.0317 2.49707 26.6499 4.37935 26.6499 6.75195C26.6499 9.12454 28.0317 11.0068 30.3861 11.0068C32.7404 11.0068 34.1223 9.13873 34.1223 6.75195C34.1223 4.36516 32.7546 2.49707 30.3861 2.49707ZM30.3861 9.07592C29.2352 9.07592 28.6578 8.03854 28.6578 6.76005C28.6578 5.48156 29.2332 4.45634 30.3861 4.45634C31.5389 4.45634 32.1265 5.49372 32.1265 6.76005C32.1265 8.02638 31.5389 9.07389 30.3861 9.07389V9.07592Z" fill="#ED1C24"/>
<path d="M38.4622 5.90151L38.1806 5.83668C37.4896 5.69687 36.9385 5.51655 36.9385 5.02622C36.9385 4.4893 37.4633 4.27047 37.9232 4.27047C38.2376 4.27526 38.5475 4.34486 38.8338 4.47489C39.12 4.60493 39.3763 4.79262 39.5867 5.02622L40.853 3.77205C40.4831 3.35323 40.0252 3.02128 39.512 2.79992C38.9989 2.57856 38.4433 2.47326 37.8847 2.49153C36.1706 2.49153 34.8638 3.45192 34.8638 5.05054C34.8638 6.50935 35.9133 7.2266 37.1938 7.49405L37.4755 7.55889C38.5372 7.77568 38.9343 7.94182 38.9343 8.45443C38.9343 8.96704 38.4987 9.26489 37.8341 9.26489C37.4323 9.26446 37.0362 9.16919 36.6781 8.98681C36.3201 8.80444 36.0101 8.54011 35.7735 8.21535L34.4808 9.49587C35.1981 10.3529 36.1017 11.0195 37.8604 11.0195C39.3841 11.0195 41.009 10.1483 41.009 8.37137C41.0333 6.50327 39.6272 6.14464 38.4622 5.90151Z" fill="#ED1C24"/>
<path d="M45.5638 9.07408C44.6683 9.07408 43.7403 8.33252 43.7403 6.70554C43.7403 5.25888 44.6115 4.45248 45.5192 4.45248C46.2365 4.45248 46.6579 4.78477 46.9902 5.36019L48.6273 4.27216C47.8169 3.03014 46.8362 2.50537 45.4909 2.50537C43.0332 2.50537 41.702 4.41196 41.702 6.71567C41.702 9.13487 43.173 11.0293 45.4646 11.0293C47.0855 11.0293 47.8453 10.466 48.676 9.26251L47.0247 8.1522C46.6904 8.69115 46.3317 9.07408 45.5638 9.07408Z" fill="#ED1C24"/>
<path d="M54.0878 2.69995V5.69457H51.6179V2.69995H49.4803V10.8409H51.6179V7.6275H54.0878V10.8409H56.2253V2.69995H54.0878Z" fill="#ED1C24"/>
<path d="M6.98019 0.627198C5.75988 0.626797 4.56685 0.988296 3.55201 1.66597C2.53716 2.34365 1.74608 3.30707 1.27881 4.43437C0.811535 5.56168 0.689072 6.80224 0.926897 7.99915C1.16472 9.19606 1.75215 10.2956 2.6149 11.1586C3.47765 12.0216 4.57696 12.6094 5.77379 12.8476C6.97063 13.0859 8.21123 12.9638 9.33869 12.4969C10.4661 12.03 11.4298 11.2392 12.1078 10.2246C12.7858 9.20998 13.1477 8.01708 13.1477 6.79677C13.1477 5.1605 12.4977 3.59124 11.3407 2.43422C10.1837 1.27721 8.61444 0.627198 6.97816 0.627198H6.98019ZM6.98019 12.3788C5.87374 12.3788 4.79216 12.0505 3.87232 11.4356C2.95249 10.8207 2.23573 9.94672 1.81278 8.9243C1.38982 7.90189 1.27967 6.77698 1.49627 5.69194C1.71287 4.6069 2.24647 3.6105 3.02956 2.82883C3.81264 2.04716 4.81001 1.51536 5.89544 1.30073C6.98088 1.08611 8.10558 1.1983 9.12723 1.6231C10.1489 2.04791 11.0215 2.76624 11.6348 3.68719C12.248 4.60815 12.5743 5.69032 12.5723 6.79677C12.5723 8.27989 11.9831 9.70227 10.9344 10.751C9.88569 11.7997 8.46331 12.3889 6.98019 12.3889V12.3788Z" fill="black"/>
<path d="M9.52505 2.94727H9.10361V5.0585H4.86697V2.94727H4.43136C3.79522 3.36802 3.27327 3.93985 2.91217 4.61163C2.55106 5.28342 2.36206 6.03422 2.36206 6.79691C2.36206 7.5596 2.55106 8.3104 2.91217 8.98219C3.27327 9.65398 3.79522 10.2258 4.43136 10.6466H4.86697V8.53938H9.10361V10.6466H9.52505C10.1616 10.2261 10.684 9.65441 11.0454 8.98259C11.4068 8.31076 11.596 7.55979 11.596 6.79691C11.596 6.03404 11.4068 5.28307 11.0454 4.61124C10.684 3.93941 10.1616 3.36769 9.52505 2.94727ZM4.27737 9.82193C3.4781 9.10831 2.99401 8.10718 2.93098 7.03755C2.86795 5.96793 3.23112 4.91687 3.94104 4.11432C4.0467 3.99658 4.15899 3.88495 4.27737 3.78V9.82193ZM9.10159 7.95384H4.86697V5.63189H9.10361L9.10159 7.95384ZM9.67701 9.80977V8.52925V5.05647V3.77595C10.4759 4.49388 10.9571 5.49959 11.0148 6.5721C11.0726 7.64461 10.7021 8.69617 9.98498 9.49572C9.88819 9.60276 9.78607 9.70487 9.67903 9.80167L9.67701 9.80977Z" fill="black"/>
</svg>
