<svg width="57" height="14" viewBox="0 0 57 14" fill="none" xmlns="http://www.w3.org/2000/svg">
<g clip-path="url(#clip0_1095_10189)">
<path d="M0.556396 13.8057H13.3871V0.974121H0.556396V13.8057ZM8.77974 1.95144C9.92021 2.33078 10.9121 3.05989 11.6145 4.03518C12.317 5.01046 12.6941 6.1823 12.6925 7.3842C12.6987 9.88325 11.0935 12.0276 8.77974 12.8205V1.95144ZM6.96911 1.66079C7.37553 1.66481 7.78066 1.70714 8.17912 1.78723C8.17912 4.6946 5.36923 7.08653 2.46625 7.08653H1.25272C1.45205 4.10804 3.91774 1.6643 6.96911 1.6643V1.66079ZM2.46713 7.69153C5.36483 7.69153 8.17473 10.0817 8.17473 12.9856C7.77668 13.0667 7.37182 13.11 6.9656 13.1146C3.91335 13.1146 1.36424 10.656 1.24833 7.69153H2.46713Z" fill="black"/>
<path d="M17.6819 8.51783V7.7091H20.3513V6.67734H17.681V5.17668H20.5216V4.14844H16.5886V8.4748C16.5886 9.56715 17.054 10.3188 18.1464 10.4681C18.167 10.4737 18.1882 10.477 18.2096 10.4777H18.2298C18.3446 10.4911 18.4601 10.4982 18.5757 10.4988H20.5954V9.47144H18.5845C18.2368 9.46793 17.6819 9.2967 17.6819 8.51783Z" fill="black"/>
<path d="M21.3734 7.14717V10.4962H22.4675V7.12522V4.14673H21.3734V7.14717Z" fill="black"/>
<path d="M25.6022 5.75977C24.2201 5.75977 23.1857 6.71162 23.1857 8.19384V8.23072C23.1857 9.67694 24.1832 10.6104 25.6295 10.6104C26.3249 10.6104 26.9747 10.4181 27.5692 9.7867L26.9106 9.1457C26.5594 9.49693 26.2239 9.67694 25.6663 9.67694C24.8515 9.67694 24.3114 9.20101 24.2746 8.46868H27.8625C27.8809 8.28516 27.8809 8.08408 27.8809 8.08408C27.8809 6.79416 26.9747 5.75977 25.6022 5.75977ZM24.3027 7.69948C24.3483 7.14189 24.9173 6.69318 25.6022 6.69318C26.2424 6.69318 26.764 7.15067 26.764 7.69948H24.3027Z" fill="black"/>
<path d="M30.9525 6.73888C31.1725 6.73516 31.3908 6.77843 31.5928 6.8658C31.7948 6.95317 31.9758 7.08263 32.1238 7.24554L32.8017 6.54306C32.5684 6.28571 32.2826 6.08143 31.9636 5.94403C31.6445 5.80664 31.2997 5.73932 30.9525 5.74663C29.5616 5.74663 28.4455 6.78103 28.4455 8.19037C28.4455 9.59971 29.5616 10.6341 30.9525 10.6341C31.2997 10.6414 31.6445 10.5741 31.9636 10.4367C32.2826 10.2993 32.5684 10.095 32.8017 9.83767L32.1238 9.13519C31.9757 9.29771 31.7946 9.42674 31.5925 9.51366C31.3905 9.60058 31.1723 9.64338 30.9525 9.63922C30.1472 9.63922 29.5343 9.02456 29.5343 8.193C29.5343 7.36145 30.1472 6.73888 30.9525 6.73888Z" fill="black"/>
<path d="M34.5755 8.51959V6.89423H35.5703V5.90462H34.5755V4.14844H33.4822V8.58544C33.5139 9.6172 33.9828 10.3197 35.0373 10.4681C35.058 10.4737 35.0792 10.477 35.1006 10.4777H35.1208C35.236 10.4897 35.3518 10.4953 35.4676 10.4944H35.5826L35.587 9.46705H35.4764C35.1304 9.46968 34.5755 9.29845 34.5755 8.51959Z" fill="black"/>
<path d="M37.5751 6.58771V5.90455H36.488V10.4943H37.5751V8.07959C37.5751 7.32355 38.058 6.85026 38.814 6.85026C38.9671 6.84962 39.1199 6.86493 39.2698 6.89592V5.84045C39.1614 5.82342 39.0519 5.81432 38.9422 5.81323C38.2828 5.81411 37.7911 6.11442 37.5751 6.58771Z" fill="black"/>
<path d="M41.94 5.76831C40.5456 5.76831 39.434 6.82202 39.434 8.20063C39.434 9.57924 40.5456 10.6329 41.94 10.6329C43.3345 10.6329 44.4452 9.57924 44.4452 8.20063C44.4452 6.82202 43.3248 5.76831 41.94 5.76831ZM41.94 9.6407C41.6544 9.64453 41.3741 9.56334 41.1348 9.40745C40.8954 9.25156 40.7079 9.02802 40.5959 8.76524C40.4839 8.50246 40.4526 8.21232 40.506 7.93171C40.5594 7.65111 40.695 7.39271 40.8956 7.18937C41.0962 6.98604 41.3527 6.84695 41.6326 6.7898C41.9125 6.73265 42.203 6.76002 42.4673 6.86843C42.7315 6.97683 42.9576 7.16138 43.1167 7.3986C43.2758 7.63581 43.3608 7.91499 43.3608 8.20063C43.3655 8.3894 43.3322 8.57719 43.2627 8.75278C43.1932 8.92836 43.089 9.08814 42.9564 9.22257C42.8238 9.35699 42.6654 9.4633 42.4908 9.53514C42.3162 9.60698 42.1289 9.64289 41.94 9.6407Z" fill="black"/>
<path d="M45.1179 7.03741V10.4962H46.212V7.08132V4.14673H45.1179V7.03741Z" fill="black"/>
<path d="M50.1545 8.57394C50.1545 9.30276 49.7269 9.61273 49.1526 9.61273C48.5784 9.61273 48.1499 9.30276 48.1499 8.5836V5.90454H47.0479V8.67492C47.0479 9.98679 48.0041 10.6155 49.143 10.6155C50.2819 10.6155 51.2566 9.97801 51.2566 8.6477V5.90454H50.1545V8.57394Z" fill="black"/>
<path d="M55.3934 9.02792L54.7041 8.06377L55.5576 6.90118L56.2891 5.90454H55.0957L54.1026 7.28051L53.0998 5.90454H51.9162L52.5949 6.83356L53.5011 8.07255L52.5519 9.39584L51.7607 10.4961H52.9365L54.1026 8.87425L55.2687 10.4961H56.4436L55.3934 9.02792Z" fill="black"/>
</g>
<defs>
<clipPath id="clip0_1095_10189">
<rect width="55.8871" height="12.8316" fill="white" transform="translate(0.556396 0.974121)"/>
</clipPath>
</defs>
</svg>
