<svg width="49" height="12" viewBox="0 0 49 12" fill="none" xmlns="http://www.w3.org/2000/svg">
<g clip-path="url(#clip0_1095_10206)">
<path d="M8.13788 6.01976C8.13788 8.14684 9.19214 9.22471 11.2754 9.22471C13.3586 9.22471 14.4044 8.14346 14.4044 6.01976C14.4044 3.89606 13.3535 2.80469 11.2754 2.80469C9.1972 2.80469 8.13788 3.88425 8.13788 6.01976V6.01976ZM9.66445 6.01976C9.66445 4.61802 10.1148 4.04956 11.2636 4.04956C12.4123 4.04956 12.8761 4.59777 12.8761 6.01976C12.8761 7.44175 12.4241 7.98996 11.2636 7.98996C10.103 7.98996 9.66445 7.44512 9.66445 6.01976Z" fill="#231F20"/>
<path d="M27.0757 6.01976C27.0757 8.14684 28.135 9.22471 30.2165 9.22471C32.2981 9.22471 33.3422 8.14346 33.3422 6.01976C33.3422 3.89606 32.2913 2.80469 30.2216 2.80469C28.1519 2.80469 27.0807 3.88425 27.0807 6.01976H27.0757ZM28.6124 6.01976C28.6124 4.61802 29.0594 4.04956 30.2081 4.04956C31.3889 4.04956 31.8173 4.59777 31.8173 6.01976C31.8173 7.44175 31.3669 7.98996 30.2081 7.98996C29.0493 7.98996 28.6124 7.44512 28.6124 6.01976Z" fill="#231F20"/>
<path d="M44.5596 1.47495V7.30291C44.5596 8.48368 45.2714 9.11792 46.6242 9.11792H47.9416C48.279 9.11792 48.4308 8.81598 48.4308 8.52585C48.4308 8.23572 48.2807 7.93378 47.9416 7.93378H47.1758C46.4775 7.93378 46.1131 7.88992 46.1131 7.06169V4.24302H47.8337C48.171 4.24302 48.3245 3.93939 48.3245 3.64589C48.3245 3.35238 48.1727 3.05381 47.8337 3.05381H46.1131V1.47495C46.1131 1.07349 45.8264 0.832275 45.3608 0.832275C44.988 0.832275 44.5596 1.00096 44.5596 1.47495Z" fill="#231F20"/>
<path d="M15.5615 1.47495V7.30291C15.5615 8.48368 16.2767 9.11792 17.6346 9.11792H18.952C19.2894 9.11792 19.4395 8.81598 19.4395 8.52585C19.4395 8.23572 19.2877 7.93378 18.952 7.93378H18.1828C17.4828 7.93378 17.1201 7.88992 17.1201 7.06169V4.24302H18.839C19.1764 4.24302 19.3299 3.93939 19.3299 3.64589C19.3299 3.35238 19.1781 3.05381 18.839 3.05381H17.1201V1.47495C17.1201 1.07349 16.8384 0.832275 16.3661 0.832275C15.995 0.832275 15.5615 1.00096 15.5615 1.47495Z" fill="#231F20"/>
<path d="M39.9782 2.93262C38.1935 2.93262 37.4294 3.64277 37.4294 5.30597V8.462C37.4294 8.85841 37.7195 9.09119 38.2087 9.09119C38.6979 9.09119 38.9931 8.85841 38.9931 8.46538V5.41224C38.9931 4.5216 39.1466 4.24496 40.1148 4.24496H40.5669C41.5233 4.25002 41.692 4.52666 41.692 5.41224V8.44851C41.692 8.84491 41.9821 9.07769 42.4662 9.07769C42.9503 9.07769 43.2455 8.84491 43.2455 8.45188V5.30597C43.2455 3.64277 42.4831 2.93262 40.6951 2.93262H39.9782Z" fill="#231F20"/>
<path d="M34.5011 3.60393V8.4316C34.5011 8.92583 34.9076 9.10632 35.2872 9.10632C35.6667 9.10632 36.0698 8.92752 36.0698 8.4316V3.60393C36.0698 3.108 35.6684 2.9292 35.2838 2.9292C34.8992 2.9292 34.5011 3.108 34.5011 3.60393Z" fill="#231F20"/>
<path d="M34.4033 1.24414C34.4053 1.41832 34.4588 1.58801 34.5571 1.73182C34.6554 1.87564 34.7941 1.98713 34.9557 2.05225C35.1172 2.11737 35.2945 2.13321 35.465 2.09776C35.6356 2.06231 35.7918 1.97716 35.914 1.85305C36.0363 1.72895 36.119 1.57143 36.1519 1.40036C36.1847 1.22929 36.1662 1.05233 36.0986 0.891776C36.031 0.731223 35.9174 0.59427 35.7721 0.498178C35.6268 0.402087 35.4563 0.351158 35.2822 0.351813C35.1657 0.352475 35.0506 0.376093 34.9433 0.421317C34.836 0.46654 34.7386 0.53248 34.6568 0.615363C34.575 0.698246 34.5104 0.796444 34.4666 0.904338C34.4228 1.01223 34.4007 1.1277 34.4016 1.24414" fill="#231F20"/>
<path d="M21.2326 3.11458C20.6304 3.24953 20.2947 3.62063 20.2947 4.29536V10.9785C20.2947 11.4508 20.6928 11.6212 21.0707 11.6212C21.4485 11.6212 21.8483 11.4525 21.8483 10.9785V9.03025C22.2175 9.11281 22.5951 9.15243 22.9734 9.14833C23.9231 9.14833 24.4173 8.97965 24.9588 8.66421C25.7567 8.18684 26.2306 7.28946 26.2306 6.09182C26.2306 4.00354 25.1629 2.94253 23.0493 2.94253C22.4396 2.93684 21.8309 2.99336 21.2326 3.11121V3.11458ZM21.8483 7.82418V4.3156C22.2095 4.24551 22.5768 4.21161 22.9447 4.21439C24.1744 4.21439 24.6703 4.67489 24.6703 5.97037C24.6703 7.42609 24.2554 7.93045 22.9194 7.93045C22.5598 7.93397 22.2007 7.89948 21.8483 7.82755" fill="#231F20"/>
<path d="M5.42546 1.29118V4.11997H2.09062V1.29118C2.09062 0.891406 1.80893 0.653564 1.33662 0.653564C0.96889 0.653564 0.533691 0.820559 0.533691 1.29118V8.44835C0.533691 8.84812 0.817077 9.08934 1.29107 9.08934C1.66386 9.08934 2.09062 8.92065 2.09062 8.44835V5.54027H5.42546V8.44835C5.42546 8.84812 5.70885 9.08934 6.18115 9.08934C6.54888 9.08934 6.98239 8.92065 6.98239 8.44835V1.29118C6.98239 0.891406 6.69732 0.653564 6.22332 0.653564C5.8556 0.653564 5.42546 0.822246 5.42546 1.29118" fill="#231F20"/>
</g>
<defs>
<clipPath id="clip0_1095_10206">
<rect width="47.8989" height="11.2629" fill="white" transform="translate(0.533691 0.351807)"/>
</clipPath>
</defs>
</svg>
