<svg width="53" height="14" viewBox="0 0 53 14" fill="none" xmlns="http://www.w3.org/2000/svg">
<path d="M6.86762 4.04895V10.4928C6.85919 10.5925 6.87161 10.693 6.90409 10.7877C6.93656 10.8824 6.98839 10.9693 7.05626 11.0429C7.12414 11.1165 7.20658 11.1751 7.29835 11.2151C7.39013 11.2551 7.48922 11.2756 7.58933 11.2753C7.68879 11.2735 7.78686 11.2515 7.87762 11.2108C7.96837 11.1701 8.04994 11.1114 8.11738 11.0382C8.18483 10.9651 8.23676 10.8791 8.27004 10.7853C8.30333 10.6916 8.31727 10.5921 8.31104 10.4928V4.04895C8.31701 3.94981 8.30288 3.8505 8.26948 3.75697C8.23608 3.66344 8.1841 3.57763 8.11668 3.50471C8.04926 3.43178 7.96779 3.37325 7.87716 3.33263C7.78653 3.292 7.68863 3.27013 7.58933 3.26832C7.4893 3.26771 7.39025 3.28795 7.29848 3.32775C7.20671 3.36755 7.12425 3.42604 7.05634 3.49949C6.98844 3.57294 6.93658 3.65973 6.90409 3.75434C6.8716 3.84894 6.85918 3.94928 6.86762 4.04895" fill="#0091D0"/>
<path d="M10.1154 1.76778C10.1154 2.06052 10.2995 2.25567 10.5683 2.45083C11.3332 2.94715 11.9612 3.62773 12.3945 4.43004C12.8278 5.23235 13.0526 6.13068 13.0482 7.04252C13.076 8.13351 12.7762 9.20778 12.1875 10.1267C11.5989 11.0457 10.7484 11.7672 9.74575 12.1982C8.74311 12.6292 7.63434 12.7498 6.56247 12.5446C5.4906 12.3394 4.50481 11.8177 3.73226 11.0469C3.2094 10.5206 2.79653 9.89548 2.51774 9.20798C2.23894 8.52048 2.0998 7.78435 2.10842 7.04252C2.10415 6.12851 2.33156 5.22833 2.76942 4.42601C3.20728 3.6237 3.84131 2.94542 4.61231 2.45451C4.88295 2.25935 5.06338 2.0642 5.06338 1.77146C5.06243 1.68396 5.04407 1.59752 5.00937 1.51718C4.97467 1.43685 4.92431 1.36423 4.86124 1.30356C4.79818 1.24289 4.72366 1.19539 4.64204 1.16382C4.56042 1.13226 4.47333 1.11727 4.38585 1.11971C4.2067 1.11273 4.03099 1.17022 3.8906 1.28173C1.88196 2.58523 0.687088 4.70065 0.687088 7.01122C0.67245 7.92336 0.842717 8.829 1.18762 9.67354C1.53252 10.5181 2.04491 11.284 2.69388 11.9251C4.01391 13.1775 5.76991 13.8663 7.58936 13.8454C9.41021 13.8739 11.169 13.184 12.4848 11.9251C13.1232 11.2773 13.6271 10.5096 13.9677 9.6663C14.3083 8.82299 14.4789 7.92067 14.4695 7.01122C14.4695 4.70065 13.2747 2.59259 11.29 1.28173C11.1491 1.1698 10.9727 1.11229 10.7929 1.11971C10.7051 1.11465 10.6172 1.12772 10.5346 1.15811C10.4521 1.1885 10.3767 1.23556 10.3131 1.29636C10.2496 1.35715 10.1992 1.43038 10.1652 1.51149C10.1312 1.59259 10.1142 1.67983 10.1154 1.76778" fill="#0091D0"/>
<path d="M6.66511 1.03146C6.66191 1.15435 6.68336 1.27663 6.72819 1.39109C6.77302 1.50556 6.84032 1.60988 6.92612 1.69791C7.01192 1.78595 7.11448 1.8559 7.22776 1.90365C7.34103 1.95141 7.46273 1.97599 7.58565 1.97594C7.83198 1.9697 8.0661 1.86744 8.23808 1.69099C8.41007 1.51454 8.50628 1.27786 8.5062 1.03146C8.4996 0.790256 8.40022 0.560893 8.22874 0.391131C8.05726 0.221369 7.82691 0.124293 7.58565 0.120117C7.34151 0.120117 7.10736 0.217103 6.93473 0.38974C6.76209 0.562376 6.66511 0.796521 6.66511 1.04067" fill="#0091D0"/>
<path d="M17.4705 4.14697C17.3803 4.14697 17.3343 4.18011 17.3343 4.27769V10.3644C17.3343 10.4619 17.3803 10.5264 17.4705 10.5264H18.5071C18.5973 10.5264 18.6194 10.4619 18.6194 10.3644V4.27769C18.6214 4.26158 18.6201 4.24521 18.6154 4.22964C18.6108 4.21408 18.6029 4.19967 18.5923 4.18734C18.5817 4.17502 18.5687 4.16506 18.554 4.1581C18.5393 4.15115 18.5233 4.14736 18.5071 4.14697H17.4705Z" fill="#0091D0"/>
<path d="M20.1549 4.14649C20.1169 4.1443 20.0795 4.15655 20.0501 4.18079C20.0207 4.20503 20.0016 4.23947 19.9966 4.27721V10.3952C20.0012 10.4331 20.0202 10.4678 20.0497 10.4921C20.0791 10.5164 20.1168 10.5285 20.1549 10.5259H21.1694C21.2596 10.5259 21.3277 10.4928 21.3277 10.3952V5.38371C21.3277 5.35057 21.3277 5.35057 21.3719 5.35057H22.749C23.8537 5.35057 24.2606 5.74088 24.2606 6.84738V10.3952C24.2606 10.4928 24.3048 10.5259 24.395 10.5259H25.4113C25.5015 10.5259 25.5457 10.4928 25.5457 10.3952V6.55465C25.5457 4.9934 24.5754 4.14649 22.8171 4.14649H20.1549Z" fill="#0091D0"/>
<path d="M26.9909 4.14658H28.7933C31.0265 4.14658 32.3135 5.31936 32.3135 7.33536C32.3135 8.50814 31.8385 10.526 28.6589 10.526H26.9909C26.9731 10.5273 26.9553 10.5248 26.9385 10.5188C26.9218 10.5128 26.9065 10.5033 26.8936 10.491C26.8808 10.4786 26.8707 10.4637 26.864 10.4473C26.8572 10.4308 26.8541 10.4131 26.8546 10.3953V4.2773C26.8541 4.2595 26.8572 4.24179 26.864 4.22531C26.8707 4.20882 26.8808 4.19393 26.8936 4.18161C26.9065 4.16928 26.9218 4.1598 26.9385 4.15376C26.9553 4.14773 26.9731 4.14528 26.9909 4.14658ZM28.1636 9.22433C28.1636 9.25747 28.1857 9.28876 28.2078 9.28876H29.0658C30.2606 9.28876 30.9363 8.57258 30.9363 7.33536C30.9363 6.09814 30.2606 5.3838 29.0952 5.3838H28.2152C28.1931 5.3838 28.171 5.41694 28.171 5.44823L28.1636 9.22433Z" fill="#0091D0"/>
<path d="M33.1696 7.36813C33.1696 8.47278 33.4863 9.32153 34.1178 9.87386C34.7033 10.3949 35.517 10.6876 36.5775 10.6876C37.1609 10.6835 37.7398 10.5847 38.2916 10.3949C38.3818 10.3636 38.426 10.3305 38.426 10.2329L38.4039 9.31601C38.4039 9.25157 38.4039 9.18529 38.3357 9.15215C38.3136 9.12085 38.2695 9.12085 38.2234 9.15215C37.7321 9.3646 37.203 9.47545 36.6677 9.47802C35.3789 9.47802 34.5909 8.89256 34.5468 7.88363H38.4131C38.4939 7.8906 38.5745 7.86767 38.6395 7.8192C38.7058 7.71978 38.7297 7.5909 38.7297 7.10301C38.7297 5.21404 37.6693 3.97314 36.0215 3.97314C34.3074 3.97314 33.1788 5.34108 33.1788 7.35708L33.1696 7.36813ZM35.9773 5.14776C36.3606 5.13687 36.7329 5.27705 37.0138 5.53808C37.2978 5.86199 37.4508 6.28017 37.4428 6.71086V6.74215H34.5026C34.5468 5.76637 35.1322 5.14776 35.9755 5.14776" fill="#0091D0"/>
<path d="M39.5987 6.00201C39.5987 7.01094 40.1179 7.59641 41.3827 7.88914L42.1191 8.0843C42.7727 8.21501 42.9753 8.41017 42.9753 8.76734C42.9753 9.22394 42.5021 9.51667 41.6681 9.51667C41.0184 9.52047 40.3745 9.39531 39.7736 9.14845C39.7276 9.11715 39.6834 9.11715 39.6594 9.14845C39.6435 9.15926 39.631 9.17429 39.6232 9.19186C39.6153 9.20943 39.6126 9.22883 39.6152 9.24787L39.5913 10.1905C39.5913 10.3212 39.6152 10.3544 39.7754 10.4188C40.3426 10.57 40.925 10.6571 41.5116 10.6784C43.9474 10.6784 44.3082 9.40989 44.3082 8.6532C44.3082 7.70871 43.7669 7.15638 42.55 6.86365L41.9406 6.70163C41.1065 6.50648 40.9243 6.24504 40.9243 5.85473C40.9243 5.49755 41.2188 5.1054 42.0289 5.1054C42.6206 5.12898 43.2091 5.20538 43.7872 5.3337C43.8104 5.34993 43.838 5.35864 43.8663 5.35864C43.8947 5.35864 43.9223 5.34993 43.9455 5.3337C43.9634 5.30446 43.9711 5.27019 43.9676 5.23612L43.9915 4.35791C43.9915 4.2272 43.8995 4.1959 43.8074 4.16276C43.2249 4.04087 42.6314 3.97856 42.0363 3.97681C40.5468 3.97681 39.5987 4.75743 39.5987 6.00201Z" fill="#0091D0"/>
<path d="M45.5547 4.14648C45.4645 4.14648 45.4203 4.17962 45.4203 4.2772V10.3639C45.4203 10.4614 45.4645 10.5259 45.5547 10.5259H46.5931C46.6815 10.5259 46.7275 10.4614 46.7275 10.3639V4.2772C46.7289 4.25934 46.7264 4.24138 46.7202 4.2246C46.7139 4.20783 46.7039 4.19265 46.6911 4.18016C46.6783 4.16766 46.6628 4.15817 46.6459 4.15235C46.6289 4.14652 46.6109 4.14452 46.5931 4.14648H45.5547Z" fill="#0091D0"/>
<path d="M47.8561 4.14697C47.788 4.14697 47.7419 4.18011 47.7419 4.27769V5.22033C47.7399 5.25276 47.7508 5.28468 47.7721 5.30916C47.7935 5.33363 47.8237 5.34869 47.8561 5.35105H49.329C49.3511 5.35105 49.375 5.38419 49.375 5.38419V10.3957C49.3732 10.4117 49.3748 10.428 49.3795 10.4434C49.3843 10.4589 49.3922 10.4732 49.4027 10.4854C49.4133 10.4977 49.4262 10.5077 49.4408 10.5147C49.4553 10.5217 49.4711 10.5257 49.4873 10.5264H50.5699C50.638 10.5264 50.6822 10.4932 50.6822 10.3957V5.38419C50.6822 5.35105 50.7061 5.35105 50.7282 5.35105H52.2011C52.217 5.34989 52.2326 5.34558 52.2469 5.33837C52.2612 5.33116 52.274 5.32119 52.2844 5.30905C52.2948 5.2969 52.3028 5.28281 52.3077 5.26758C52.3127 5.25236 52.3146 5.2363 52.3134 5.22033V4.27769C52.3134 4.18011 52.2692 4.14697 52.2011 4.14697H47.8561Z" fill="#0091D0"/>
</svg>
