<svg width="59" height="18" viewBox="0 0 59 18" fill="none" xmlns="http://www.w3.org/2000/svg">
<g clip-path="url(#clip0_3012_9238)">
<path d="M58.7 0.10083H0.265991V17.0514H58.7V0.10083Z" fill="#B00034"/>
<path d="M10.4364 13.3557V14.3733H15.8523V13.4813H12.9869C14.0868 12.8574 14.9496 11.8873 15.4407 10.7221C15.9318 9.55688 16.0237 8.26194 15.7021 7.03901C15.3806 5.81609 14.6635 4.73386 13.6628 3.96092C12.662 3.18797 11.4337 2.76772 10.1692 2.76563C8.90474 2.76354 7.67505 3.17973 6.67175 3.94936C5.66844 4.719 4.94786 5.79885 4.62225 7.02071C4.29664 8.24256 4.38429 9.5378 4.87154 10.7047C5.35879 11.8715 6.21829 12.8444 7.31613 13.4719H4.28021V14.3808H9.72425V13.3519C8.45426 13.2597 7.26954 12.6785 6.41939 11.7305C5.56925 10.7826 5.11998 9.54177 5.16611 8.26926C5.21224 6.99676 5.75018 5.79176 6.66673 4.90783C7.58328 4.0239 8.80698 3.52997 10.0803 3.52997C11.3537 3.52997 12.5774 4.0239 13.4939 4.90783C14.4105 5.79176 14.9484 6.99676 14.9945 8.26926C15.0407 9.54177 14.5914 10.7826 13.7412 11.7305C12.8911 12.6785 11.7064 13.2597 10.4364 13.3519" fill="white"/>
<path d="M6.24414 6.51562V10.5373H7.0987V7.76185L8.71598 10.5373H14.1188V6.51562H13.2792V9.30043L11.5458 6.51562H6.24414Z" fill="white"/>
<path d="M17.1041 6.51562H23.7625V7.35894H21.182V8.11229H23.7625V8.87877H21.182V9.71084H23.7625V10.5373H17.1041V6.51562Z" fill="white"/>
<path d="M25.8127 6.53638V10.5262H29.87V8.88078H32.4318V8.11993H29.87V7.37219H32.4318V6.53638H25.8127Z" fill="white"/>
<path d="M33.8185 6.53638V10.5262H37.8871V8.88078H40.4245V8.12555H37.8871V7.37219H40.4245V6.53638H33.8185Z" fill="white"/>
</g>
<defs>
<clipPath id="clip0_3012_9238">
<rect width="58.434" height="16.9506" fill="white" transform="translate(0.265991 0.10083)"/>
</clipPath>
</defs>
</svg>
