<svg width="59" height="11" viewBox="0 0 59 11" fill="none" xmlns="http://www.w3.org/2000/svg">
<path fill-rule="evenodd" clip-rule="evenodd" d="M32.2432 5.17295C32.2432 5.17295 31.6695 4.74842 31.3468 4.62106C31.3468 4.62106 30.2712 4.02672 30.0561 3.772C30.0561 3.772 29.6258 3.30501 29.8768 2.75312C29.8768 2.75312 29.9843 2.4135 30.4146 2.4135C30.4146 2.4135 30.9883 2.45595 30.9883 3.00784V3.81445H33.0319V2.66822C33.0319 2.66822 33.1754 0.757823 30.5939 0.672917C30.5939 0.672917 28.5502 0.503105 27.9765 1.81915C27.9765 1.81915 27.7614 2.11632 27.7614 3.09275V3.81445C27.7614 3.81445 27.7255 4.66351 28.0841 5.17295C28.0841 5.17295 28.2992 5.51258 28.8012 5.93711C28.8012 5.93711 29.8409 6.57391 30.4504 6.95598C30.4504 6.95598 31.06 7.38051 30.9883 8.05976C30.9883 8.05976 30.9524 8.73901 30.3429 8.69656C30.3429 8.69656 29.8051 8.65411 29.8051 8.01731V7.2107H27.618V8.35694C27.618 8.35694 27.5463 10.5645 30.3787 10.5645C30.3787 10.5645 33.0678 10.6494 33.2112 8.31448V7.38051C33.1754 7.33806 33.2829 5.93711 32.2432 5.17295Z" fill="black"/>
<path fill-rule="evenodd" clip-rule="evenodd" d="M21.7021 0.927734L21.0208 6.02211H20.8416L20.1962 0.970188H16.7542L16.6108 10.225H18.6186L18.6545 3.22021H18.7979L19.8735 10.225H22.0248L23.1004 3.22021H23.2438L23.2797 10.225H25.3233L25.1082 0.927734H21.7021Z" fill="black"/>
<path fill-rule="evenodd" clip-rule="evenodd" d="M9.61923 0.970703L8.25677 10.183H10.4439L11.2327 3.00846H11.4119L12.2366 10.183H14.4237L13.0612 0.970703H9.61923Z" fill="black"/>
<path fill-rule="evenodd" clip-rule="evenodd" d="M55.5482 5.04579V6.44674H56.1219V7.89015C56.1219 8.61186 55.6199 8.61185 55.6199 8.61185C54.9746 8.61185 55.0104 7.9326 55.0104 7.9326V2.88068C55.0104 2.37124 55.5841 2.32879 55.5841 2.32879C56.1219 2.32879 56.1219 2.96558 56.1219 2.96558V3.72974H58.1656C58.2373 2.24388 57.9863 1.8618 57.9863 1.8618C57.4844 0.5033 55.5482 0.588206 55.5482 0.588206C52.5723 0.588206 52.895 3.30521 52.895 3.30521V8.14487C52.9667 10.6921 55.8709 10.4373 55.9426 10.4373C57.2334 10.2675 57.6278 9.75809 57.6278 9.75809C57.9863 9.41847 58.0939 8.99393 58.0939 8.99393C58.2014 8.73922 58.2373 7.9326 58.2373 7.9326V5.04579H55.5482Z" fill="black"/>
<path fill-rule="evenodd" clip-rule="evenodd" d="M48.7002 6.57401H48.6285L46.5131 0.927734H44.0034V10.225H46.047L45.9395 4.53625H46.0112L48.1983 10.225H50.6364V0.927734H48.5568L48.7002 6.57401Z" fill="black"/>
<path fill-rule="evenodd" clip-rule="evenodd" d="M39.0551 7.89052C39.0551 7.89052 39.0909 8.65467 38.4814 8.65467C38.4814 8.65467 37.836 8.69713 37.836 7.89052V0.885742H35.6131V7.80561C35.6131 7.80561 35.398 10.4377 38.5173 10.4377C38.5173 10.4377 41.2422 10.4802 41.2422 7.93297V0.928196H39.0551V7.89052Z" fill="black"/>
<path fill-rule="evenodd" clip-rule="evenodd" d="M5.35232 5.17313C5.35232 5.17313 4.77865 4.7486 4.45596 4.62124C4.45596 4.62124 3.38034 4.0269 3.16521 3.77218C3.16521 3.77218 2.73496 3.30519 2.98594 2.7533C2.98594 2.7533 3.0935 2.41368 3.52375 2.41368C3.52375 2.41368 4.09742 2.45613 4.09742 3.00802V3.81463H6.14111V2.66839C6.14111 2.66839 6.28452 0.758002 3.70302 0.673096C3.70302 0.673096 3.52375 0.673096 3.23692 0.673096C3.23692 0.673096 1.65934 0.758002 1.12153 1.77688C1.12153 1.77688 0.906401 2.07405 0.906401 3.05047V3.77218C0.906401 3.77218 0.870546 4.62124 1.22909 5.13068C1.22909 5.13068 1.44421 5.4703 1.94617 5.89484C1.94617 5.89484 2.95009 6.53163 3.59546 6.91371C3.59546 6.91371 4.20498 7.33824 4.13327 8.01749C4.13327 8.01749 4.09742 8.69674 3.4879 8.65429C3.4879 8.65429 2.95009 8.61184 2.95009 7.97504V7.16843H0.762984V8.31467C0.762984 8.31467 0.691275 10.5222 3.52375 10.5222C3.52375 10.5222 6.21282 10.6071 6.35623 8.27221V7.33824C6.28452 7.33824 6.39209 5.93729 5.35232 5.17313Z" fill="black"/>
</svg>
