<svg width="64" height="14" viewBox="0 0 64 14" fill="none" xmlns="http://www.w3.org/2000/svg">
<g clip-path="url(#clip0_3214_9715)">
<mask id="mask0_3214_9715" style="mask-type:luminance" maskUnits="userSpaceOnUse" x="0" y="0" width="64" height="13">
<path d="M63.867 0.405762H0.166992V12.4948H63.867V0.405762Z" fill="white"/>
</mask>
<g mask="url(#mask0_3214_9715)">
<path fill-rule="evenodd" clip-rule="evenodd" d="M29.0134 3.59038C28.9124 3.03012 28.7086 2.4365 27.419 2.4365C26.1293 2.4365 25.9592 2.91506 25.9592 3.29357C25.9592 4.67756 31.6113 3.67375 31.6113 6.90358C31.6113 9.45646 29.0656 9.91835 27.6564 9.91835C25.6023 9.91835 23.3798 9.22636 23.3108 6.88694H25.7589C25.7589 7.62729 26.2336 8.17251 27.7271 8.17251C28.9494 8.17251 29.2424 7.59557 29.2424 7.26544C29.2424 5.79976 23.6425 6.90358 23.6425 3.62373C23.6425 2.33812 24.4742 0.690674 27.291 0.690674C29.0572 0.690674 31.1634 1.11921 31.3469 3.59038H29.0134Z" fill="#1D1D1B"/>
<path fill-rule="evenodd" clip-rule="evenodd" d="M44.9527 9.68825H42.5737V4.36574C42.5737 3.06346 41.9811 2.63493 41.284 2.63493C40.097 2.63493 39.6727 3.39361 39.6727 4.43077V9.68825H37.2971V4.40743C37.2971 3.66708 37.2971 2.62825 35.871 2.62825C34.7497 2.62825 34.3944 3.38695 34.3944 4.3424V9.67824H32.0171V0.920781H34.2917V2.20639H34.3254C34.6318 1.62945 35.2935 0.690674 36.8896 0.690674C38.1962 0.690674 38.7888 1.15256 39.4 2.09133C39.7064 1.6628 40.3681 0.690674 41.811 0.690674C43.5755 0.690674 44.9511 1.69115 44.9511 3.62373V9.68825H44.9527Z" fill="#1D1D1B"/>
<path fill-rule="evenodd" clip-rule="evenodd" d="M54.1773 7.11704C53.5476 9.22636 51.7495 9.91835 50.2056 9.91835C47.6599 9.91835 45.7085 8.73281 45.7085 5.12277C45.7085 4.06894 46.0806 0.690674 50.0355 0.690674C51.8168 0.690674 54.2784 1.51439 54.2784 5.52629V5.93982H48.0841C48.1515 6.60679 48.2879 8.08086 50.2056 8.08086C50.8672 8.08086 51.5525 7.74735 51.7326 7.12536L54.1773 7.11704ZM51.8353 4.43077C51.699 3.01344 50.7645 2.5849 50.0018 2.5849C48.8822 2.5849 48.2878 3.27856 48.1498 4.43077H51.8353Z" fill="#1D1D1B"/>
<path fill-rule="evenodd" clip-rule="evenodd" d="M63.8669 0.627414V8.61286C63.8669 10.0702 63.749 12.4947 59.3025 12.4947C57.4353 12.4947 55.4671 11.7494 55.3644 9.96018H57.9437C58.0464 10.387 58.2333 10.8139 59.6072 10.8139C60.8801 10.8139 61.4913 10.2436 61.4913 8.88131V7.8675L61.4576 7.83585C61.0669 8.48611 60.4726 9.10309 59.0465 9.10309C56.8746 9.10309 55.1606 7.69408 55.1606 4.74603C55.1606 1.83132 56.9251 0.410645 58.9119 0.410645C60.5956 0.410645 61.269 1.32941 61.5586 1.88468H61.594V0.627414H63.8669ZM59.4894 7.2422C61.1007 7.2422 61.5098 5.95994 61.5098 4.80272C61.5098 3.44041 60.7976 2.33155 59.4742 2.33155C58.5903 2.33155 57.6071 2.9335 57.6071 4.89776C57.6054 5.9666 58.0852 7.2422 59.4894 7.2422Z" fill="#1D1D1B"/>
<path fill-rule="evenodd" clip-rule="evenodd" d="M5.95546 9.62833C5.95546 10.1953 5.78571 10.7495 5.46769 11.2208C5.14966 11.6921 4.69765 12.0596 4.1688 12.2765C3.63995 12.4935 3.05802 12.5502 2.49659 12.4396C1.93516 12.329 1.41946 12.056 1.0147 11.6552C0.609929 11.2543 0.33428 10.7435 0.222605 10.1875C0.110931 9.63152 0.168246 9.05523 0.387304 8.53146C0.606361 8.00769 0.977321 7.56003 1.45328 7.24504C1.92923 6.93012 2.4888 6.76196 3.06122 6.76196C3.82882 6.76196 4.56498 7.06402 5.10775 7.6015C5.65053 8.13905 5.95546 8.86816 5.95546 9.62833Z" fill="#1D1D1B"/>
<path fill-rule="evenodd" clip-rule="evenodd" d="M11.7438 9.62833C11.7438 10.1953 11.5741 10.7495 11.256 11.2208C10.938 11.6921 10.486 12.0596 9.95713 12.2765C9.42829 12.4935 8.84634 12.5502 8.28494 12.4396C7.72347 12.329 7.20776 12.056 6.803 11.6552C6.39826 11.2543 6.12261 10.7435 6.01093 10.1875C5.89926 9.63152 5.95657 9.05523 6.17563 8.53146C6.39469 8.00769 6.76563 7.56003 7.24162 7.24504C7.71755 6.93012 8.27714 6.76196 8.84953 6.76196C9.22965 6.76196 9.606 6.83613 9.95713 6.98017C10.3083 7.12421 10.6273 7.33539 10.8961 7.6015C11.1648 7.86768 11.378 8.18371 11.5235 8.53146C11.6689 8.87921 11.7438 9.25192 11.7438 9.62833Z" fill="#1D1D1B"/>
<path fill-rule="evenodd" clip-rule="evenodd" d="M17.5306 9.62833C17.5306 10.1953 17.3609 10.7495 17.0429 11.2208C16.7249 11.6921 16.2728 12.0596 15.744 12.2765C15.2151 12.4935 14.6332 12.5502 14.0718 12.4396C13.5104 12.329 12.9947 12.056 12.5899 11.6552C12.1851 11.2543 11.9095 10.7435 11.7978 10.1875C11.6861 9.63152 11.7434 9.05523 11.9625 8.53146C12.1816 8.00769 12.5525 7.56003 13.0285 7.24504C13.5044 6.93012 14.064 6.76196 14.6364 6.76196C15.404 6.76196 16.1401 7.06402 16.683 7.6015C17.2257 8.13905 17.5306 8.86816 17.5306 9.62833Z" fill="#1D1D1B"/>
<path fill-rule="evenodd" clip-rule="evenodd" d="M11.7438 3.89565C11.7438 4.46256 11.5741 5.01674 11.256 5.48812C10.938 5.95948 10.486 6.32687 9.95713 6.54382C9.42829 6.76078 8.84634 6.81753 8.28494 6.7069C7.72347 6.59633 7.20776 6.32334 6.803 5.92247C6.39826 5.5216 6.12261 5.01087 6.01093 4.45485C5.89926 3.89883 5.95657 3.3225 6.17563 2.79875C6.39469 2.27499 6.76563 1.82732 7.24162 1.51236C7.71755 1.19741 8.27714 1.0293 8.84953 1.0293C9.22965 1.0293 9.606 1.10344 9.95713 1.24748C10.3083 1.39154 10.6273 1.60267 10.8961 1.86883C11.1648 2.135 11.378 2.45098 11.5235 2.79875C11.6689 3.14651 11.7438 3.51924 11.7438 3.89565Z" fill="#1D1D1B"/>
<path fill-rule="evenodd" clip-rule="evenodd" d="M17.5306 3.89565C17.5306 4.46256 17.3609 5.01674 17.0429 5.48812C16.7249 5.95948 16.2728 6.32687 15.744 6.54382C15.2151 6.76078 14.6332 6.81753 14.0718 6.7069C13.5104 6.59633 12.9947 6.32334 12.5899 5.92247C12.1851 5.5216 11.9095 5.01087 11.7978 4.45485C11.6861 3.89883 11.7434 3.3225 11.9625 2.79875C12.1816 2.27499 12.5525 1.82732 13.0285 1.51236C13.5044 1.19741 14.064 1.0293 14.6364 1.0293C15.404 1.0293 16.1401 1.33129 16.683 1.86883C17.2257 2.40638 17.5306 3.13545 17.5306 3.89565Z" fill="#1D1D1B"/>
<path fill-rule="evenodd" clip-rule="evenodd" d="M23.3192 3.89565C23.3192 4.46256 23.1495 5.01674 22.8315 5.48812C22.5134 5.95948 22.0614 6.32687 21.5326 6.54382C21.0037 6.76078 20.4218 6.81753 19.8604 6.7069C19.2989 6.59633 18.7833 6.32334 18.3785 5.92247C17.9737 5.5216 17.698 5.01087 17.5864 4.45485C17.4747 3.89883 17.532 3.3225 17.7511 2.79875C17.9701 2.27499 18.3411 1.82732 18.8171 1.51236C19.293 1.19741 19.8526 1.0293 20.425 1.0293C21.1926 1.0293 21.9288 1.33129 22.4715 1.86883C23.0143 2.40638 23.3192 3.13545 23.3192 3.89565Z" fill="#1D1D1B"/>
</g>
</g>
<defs>
<clipPath id="clip0_3214_9715">
<rect width="63.7" height="13" fill="white" transform="translate(0.166992 0.0761719)"/>
</clipPath>
</defs>
</svg>
