<svg width="49" height="16" viewBox="0 0 49 16" fill="none" xmlns="http://www.w3.org/2000/svg">
<path d="M47.3361 3.23864C47.2276 3.24107 47.1198 3.22127 47.0192 3.18046C46.9187 3.13964 46.8275 3.07868 46.7515 3.00132C46.6754 2.92396 46.6159 2.83184 46.5767 2.73064C46.5376 2.62943 46.5196 2.52128 46.5238 2.41285C46.5238 2.19781 46.6092 1.99158 46.7613 1.83953C46.9133 1.68747 47.1196 1.60205 47.3346 1.60205C47.5496 1.60205 47.7559 1.68747 47.9079 1.83953C48.06 1.99158 48.1454 2.19781 48.1454 2.41285C48.1488 2.52083 48.1304 2.6284 48.0911 2.72906C48.0519 2.82972 47.9927 2.92139 47.9171 2.99855C47.8415 3.07571 47.751 3.13676 47.6511 3.17803C47.5513 3.21929 47.4441 3.2399 47.3361 3.23864ZM47.3361 1.72944C46.9787 1.72944 46.6999 2.01045 46.6999 2.41285C46.6999 2.78753 46.9427 3.09551 47.3361 3.09551C47.6898 3.09551 47.9678 2.81675 47.9678 2.41285C47.9678 2.00895 47.6898 1.73094 47.3361 1.73094V1.72944ZM47.1727 2.88569H47.0229V1.97073H47.3698C47.5946 1.97073 47.704 2.04567 47.704 2.23375C47.704 2.39936 47.6021 2.46755 47.465 2.48329L47.7228 2.88569H47.5504L47.3144 2.49453H47.1727V2.88569ZM47.3406 2.36639C47.453 2.36639 47.5527 2.35515 47.5527 2.22251C47.5527 2.11236 47.4448 2.09887 47.3541 2.09887H47.1727V2.36639H47.3406Z" fill="#1D1D1B"/>
<path d="M11.499 1.70605L9.18577 10.161H7.83693L6.20859 4.0193L4.54952 10.164H3.20144L0.888184 1.70605H2.22053L3.86911 7.85074L5.52743 1.70605H6.84779L8.51959 7.85074L10.1682 1.7098L11.499 1.70605Z" fill="#1D1D1B"/>
<path d="M12.1158 1.73121L13.4482 1.62256V3.69227L13.4242 4.4671H13.4729C14.0904 4.23705 14.5872 4.12839 15.1927 4.12839C16.271 4.12914 16.9994 4.61247 16.9994 6.46562V10.1607H15.6648V6.57503C15.6648 5.46074 15.12 5.31537 14.5025 5.31537C14.1442 5.32445 13.789 5.38554 13.4482 5.49671V10.1607H12.1158V1.73121Z" fill="#1D1D1B"/>
<path d="M18.8261 1.81421C19.5163 1.81421 19.6257 2.21436 19.6257 2.66248C19.6257 3.11059 19.4758 3.52273 18.8261 3.52273C18.1765 3.52273 18.0386 3.11059 18.0386 2.66248C18.0386 2.21436 18.16 1.81421 18.8261 1.81421ZM18.16 4.21213H19.4923V10.1597H18.16V4.21213Z" fill="#1D1D1B"/>
<path d="M20.6187 4.21325H21.5269L21.709 4.69733H21.7951C22.1458 4.39759 22.7033 4.12857 23.4302 4.12857C23.523 4.12682 23.6159 4.13083 23.7082 4.14056V5.44818C23.4606 5.40484 23.2102 5.37979 22.9589 5.37325C22.5954 5.37325 22.3054 5.45792 21.954 5.61529V10.1579H20.6187V4.21325Z" fill="#1D1D1B"/>
<path d="M24.2762 10.1607V1.73121L25.6086 1.62256V10.1652L24.2762 10.1607Z" fill="#1D1D1B"/>
<path d="M35.0798 4.12939C36.9696 4.12939 37.6965 5.24293 37.6965 7.21672C37.6965 9.06987 37.0183 10.2816 35.0558 10.2816C33.0932 10.2816 32.4031 9.06987 32.4031 7.21672C32.4031 5.24293 33.1906 4.12939 35.0798 4.12939ZM36.3402 7.21672C36.3402 6.0927 36.1581 5.17024 35.0925 5.17024C34.0142 5.17024 33.7474 6.05448 33.7474 7.21672C33.7474 8.29504 33.9655 9.22798 35.0318 9.22798C36.0981 9.22798 36.3402 8.34375 36.3402 7.21672Z" fill="#1D1D1B"/>
<path d="M41.0535 4.12939C42.9434 4.12939 43.6702 5.24368 43.6702 7.21747C43.6702 9.07062 42.9958 10.2823 41.0295 10.2823C39.0632 10.2823 38.3768 9.07062 38.3768 7.21747C38.3776 5.24293 39.1651 4.12939 41.0535 4.12939ZM42.3147 7.21672C42.3147 6.09269 42.1326 5.17024 41.067 5.17024C39.9887 5.17024 39.7219 6.05448 39.7219 7.21672C39.7219 8.29504 39.94 9.22798 41.0063 9.22798C42.0726 9.22798 42.3147 8.34375 42.3147 7.21672Z" fill="#1D1D1B"/>
<path d="M44.5333 10.1607V1.73121L45.8657 1.62256V10.1652L44.5333 10.1607Z" fill="#1D1D1B"/>
<path d="M26.6989 4.21332H27.7037L27.8131 4.6487C28.2133 4.42914 28.9514 4.12939 29.6176 4.12939C30.8285 4.12939 31.7158 5.01363 31.7158 7.1328C31.7158 9.21675 30.7836 10.2464 29.2332 10.2464C28.8309 10.2387 28.4299 10.1981 28.0342 10.125V12.8504L26.7019 12.9957L26.6989 4.21332ZM28.0312 9.05864C28.4059 9.06988 28.6127 9.08262 29.0001 9.08262C29.8244 9.08262 30.3692 8.64649 30.3692 6.91399C30.3692 5.72702 29.8844 5.41528 29.0121 5.41528C28.678 5.41716 28.3466 5.47438 28.0312 5.58464V9.05864Z" fill="#1D1D1B"/>
<path d="M33.2946 0.558434C32.2988 -0.596317 29.1387 0.419055 25.6085 2.86044V3.47641C28.7161 1.26732 31.4535 0.248202 32.2396 1.15717C33.219 2.29244 30.7821 6.00248 26.7963 9.44425C22.8105 12.886 18.7835 14.7497 17.804 13.6144C17.2952 13.0247 17.7104 11.741 18.7835 10.1606H18.1592C16.8306 12.1419 16.3323 13.807 17.015 14.5975C18.2582 16.0393 22.9109 14.067 27.4055 10.1891C31.9001 6.31121 34.5386 1.99944 33.2946 0.558434Z" fill="#F0B500"/>
</svg>
