<svg width="50" height="22" viewBox="0 0 50 22" fill="none" xmlns="http://www.w3.org/2000/svg">
<g clip-path="url(#clip0_3214_9730)">
<path d="M49.4245 0.114258H0.609619V21.0381H49.4245V0.114258Z" fill="#FFDF00"/>
<path d="M17.5801 18.1863H32.2548V17.0435H17.5801V18.1863Z" fill="white"/>
<path d="M2.90552 18.1863H17.5802V17.0435H2.90552V18.1863Z" fill="#00AD4D"/>
<path d="M32.2546 18.1863H46.9293V17.0435H32.2546V18.1863Z" fill="#DA2128"/>
<path d="M9.07985 4.53086V2.69829H2.90454V4.5167H6.32493L2.90454 12.1443V14.0709H9.18806V12.1301H5.71407L9.07985 4.53086ZM20.1673 7.06833L18.8101 2.69829H16.3676V14.0709H18.9456V9.7828L20.2209 14.0709H22.6906V2.69829H20.1663V7.06833H20.1673ZM27.36 11.8581C27.36 12.1645 27.0819 12.3739 26.7421 12.3739C26.4296 12.3739 26.111 12.2384 26.111 11.8449V2.69829H23.5321V11.7913C23.5321 12.9584 24.7406 14.3561 26.7208 14.3561C28.5666 14.3561 29.9106 13.366 29.9106 11.7913V2.69829H27.359V11.8581H27.36ZM35.0675 7.65188C33.3968 6.65469 32.968 6.24004 32.9508 5.31769C32.9386 4.55816 33.1136 4.12328 33.6162 4.13643C34.0825 4.14958 34.2129 4.43478 34.2402 4.73414V6.2542H36.8192V5.11441C36.8192 3.68941 35.8968 2.45455 33.6567 2.45455C30.9008 2.45455 30.387 4.53187 30.4143 5.72627C30.4497 7.28679 30.7673 7.70751 31.1465 8.11407C31.5268 8.52164 32.5078 9.19318 33.1955 9.51176C34.132 9.94563 34.3758 10.5292 34.3758 11.1269C34.3758 11.7782 34.2534 12.389 33.6708 12.389C33.3452 12.389 33.0195 12.2535 33.0195 11.846V10.4068H30.4689V11.4384C30.4689 13.0667 31.7169 14.3015 33.6577 14.3015C35.5985 14.3015 37.0113 13.3245 37.0508 11.0308C37.0922 8.69661 35.7755 8.0726 35.0695 7.65188H35.0675ZM44.378 2.69829V14.0709H46.9297V2.69829H44.378ZM41.9619 7.63874C40.2901 6.64154 39.8613 6.22689 39.8441 5.30454C39.831 4.544 40.007 4.11013 40.5086 4.12429C40.9748 4.13643 41.1053 4.42264 41.1326 4.72099V6.24105H43.7105V5.10126C43.7105 3.67627 42.7882 2.44141 40.549 2.44141C37.7911 2.44141 37.2783 4.51771 37.3056 5.71211C37.34 7.27263 37.6586 7.69436 38.0379 8.10092C38.4181 8.5085 39.3991 9.17902 40.0869 9.49861C41.0234 9.93248 41.2671 10.517 41.2671 11.1137C41.2671 11.765 41.1447 12.3759 40.5612 12.3759C40.2355 12.3759 39.9109 12.2404 39.9109 11.8328V10.3937H37.3592V11.4252C37.3592 13.0535 38.6072 14.2894 40.548 14.2894C42.4888 14.2894 43.9007 13.3114 43.9401 11.0177C43.9806 8.68447 42.6648 8.05946 41.9589 7.63975L41.9619 7.63874ZM10.2884 2.69829L9.58957 14.0841L11.8762 14.0709L11.9844 12.8765H13.2335L13.3285 14.0709H15.8256L14.794 2.69829H10.2884ZM12.1068 11.0581L12.5538 5.18217L13.0838 11.0581H12.1068Z" fill="#001722"/>
</g>
<defs>
<clipPath id="clip0_3214_9730">
<rect width="48.8149" height="20.9238" fill="white" transform="translate(0.609619 0.114258)"/>
</clipPath>
</defs>
</svg>
